<?xml version="1.0" standalone="no"?><!DOCTYPE svg PUBLIC "-//W3C//DTD SVG 1.1//EN" "http://www.w3.org/Graphics/SVG/1.1/DTD/svg11.dtd"><svg class="icon" width="32px" height="32.00px" viewBox="0 0 1024 1024" version="1.1" xmlns="http://www.w3.org/2000/svg"><path fill="#ffffff" d="M541.395627 837.024427c0 0 3.785387-3.72736 11.656533-3.577173 167.154347 3.577173 427.987627-165.389653 351.450453-646.468267 0 0-177.619627 135.43424-296.789333 249.45664C488.91904 550.085973 541.395627 837.024427 541.395627 837.024427zM799.58016 425.018027c-20.14208 246.09792-181.568853 322.751147-181.568853 322.751147C724.00896 631.804587 791.524693 430.946987 799.58016 425.018027zM507.009707 832.136533c0 0-1.979733-3.505493-0.31744-9.17504 35.191467-120.695467-36.64896-343.04-400.92672-381.269333 0 0 63.706453 155.388587 123.293013 264.15104C288.41984 814.271147 507.009707 832.136533 507.009707 832.136533zM258.17088 564.292267c174.779733 62.624427 198.987093 194.77504 198.987093 194.77504C393.601707 659.483307 260.870827 571.306667 258.17088 564.292267z" /></svg>