<?xml version="1.0" standalone="no"?><!DOCTYPE svg PUBLIC "-//W3C//DTD SVG 1.1//EN" "http://www.w3.org/Graphics/SVG/1.1/DTD/svg11.dtd"><svg t="1502097043228" class="icon" style="" viewBox="0 0 1024 1024" version="1.1" xmlns="http://www.w3.org/2000/svg" p-id="3146" xmlns:xlink="http://www.w3.org/1999/xlink" width="48" height="48"><defs><style type="text/css"></style></defs><path d="M912 102.4h-800c-35.307 0-64 28.693-64 64v572.8c0 35.307 28.693 64 64 64h127.040c11.733 0 21.333-9.6 21.333-21.333s-9.6-21.333-21.333-21.333h-127.040c-11.733 0-21.333-9.6-21.333-21.333v-572.8c0-11.733 9.6-21.333 21.333-21.333h800c11.733 0 21.333 9.6 21.333 21.333v572.8c0 11.733-9.6 21.333-21.333 21.333h-441.813c-5.227-0.427-10.56 1.067-14.827 4.48-0.533 0.427-0.96 0.747-1.493 1.067l-180.693 122.56c-1.493 1.067-2.987 2.24-4.16 3.627-6.507 7.893-6.613 19.52 0.32 27.52 7.467 8.64 20.373 9.92 29.333 2.88 0.533-0.427 1.067-0.747 1.6-1.173l170.773-114.667c3.52-2.347 7.68-3.627 11.84-3.627h429.12c35.307 0 64-28.693 64-64v-572.8c0-35.307-28.693-64-64-64z" p-id="3147"></path><path d="M468.48 465.066c0 0 0 0 0 0 0 24.035 19.485 43.52 43.52 43.52 24.035 0 43.52-19.485 43.52-43.52 0 0 0 0 0 0 0 0 0 0 0 0 0-24.035-19.485-43.52-43.52-43.52-24.035 0-43.52 19.485-43.52 43.52s0 0 0 0z" p-id="3148"></path><path d="M239.467 465.066c0 0 0 0 0 0 0 24.035 19.485 43.52 43.52 43.52 24.035 0 43.52-19.485 43.52-43.52 0 0 0 0 0 0 0 0 0 0 0 0 0-24.035-19.485-43.52-43.52-43.52-24.035 0-43.52 19.485-43.52 43.52 0 0 0 0 0 0z" p-id="3149"></path><path d="M698.24 465.066c0 0 0 0 0 0 0 24.035 19.485 43.52 43.52 43.52 24.035 0 43.52-19.485 43.52-43.52 0 0 0 0 0 0 0 0 0 0 0 0 0-24.035-19.485-43.52-43.52-43.52-24.035 0-43.52 19.485-43.52 43.52s0 0 0 0z" p-id="3150"></path></svg>