<?xml version="1.0" standalone="no"?><!DOCTYPE svg PUBLIC "-//W3C//DTD SVG 1.1//EN" "http://www.w3.org/Graphics/SVG/1.1/DTD/svg11.dtd"><svg t="1502123439925" class="icon" style="" viewBox="0 0 1024 1024" version="1.1" xmlns="http://www.w3.org/2000/svg" p-id="1012" xmlns:xlink="http://www.w3.org/1999/xlink" width="200" height="200"><defs><style type="text/css"></style></defs><path d="M878.214571 452.007328a32.07091 32.07091 0 0 0-40.180796 22.035951c-9.994 33.832148-23.75623 65.780181-40.795181 94.943001C737.684184 670.728479 633.730198 729.095078 512 729.095078c-121.771157 0-225.725143-58.407558-285.279553-160.149757a429.127621 429.127621 0 0 1-40.754222-94.861083 32.111869 32.111869 0 0 0-40.180796-22.035951 33.217763 33.217763 0 0 0-21.503484 41.24573c11.550443 38.952025 27.401582 75.856099 47.184788 109.688247 65.042919 111.203731 178.74515 180.875019 308.298521 190.86902v156.135772c0 18.267722 14.417574 33.053927 32.234746 33.053927a32.644337 32.644337 0 0 0 32.234746-33.053927V793.810325c129.512412-9.953041 243.173684-79.624329 308.257562-190.787102 19.783205-33.791189 35.675304-70.736222 47.225747-109.770165a33.217763 33.217763 0 0 0-21.503484-41.24573zM914.217547 178.319176c-9.748246-25.189795-32.275705-41.778197-57.711255-42.351623l-9.912082-0.122877c-57.547419 0-110.138797 19.004984-156.504404 40.139836-40.549427-76.388567-78.31364-127.382543-117.675256-159.002904a64.510452 64.510452 0 0 0-7.208787-5.857139 59.390575 59.390575 0 0 0-59.718247-5.488508 63.076886 63.076886 0 0 0-15.605385 10.280713c-39.197779 31.128853-78.231722 83.146804-118.944985 158.634273-45.874099-20.39759-97.605337-38.706271-153.063847-38.706271l-9.748246 0.081918c-25.107877 0.573426-47.635337 17.202787-57.424542 42.351623-22.322664 57.588378-31.497484 126.276649-26.459525 198.569315 1.26973 18.595394 15.441549 32.767214 32.152829 32.767213 0.81918 0 1.638361 0 2.4985-0.122877 17.776213-1.474525 31.128853-18.513476 29.736246-38.091886-4.17782-60.619345 3.112885-117.470461 21.216771-164.491412l8.355639-0.122877c53.820148 0 105.469469 22.322664 153.719191 45.218755 15.195795 7.167828 32.93105 0.614385 40.999976-15.318672 41.532443-81.836116 79.337616-135.41051 115.504428-163.795109 0.737262-0.573426 1.064934-1.515484 1.761238-2.170828 0.983016 0.983016 2.047951 1.925074 3.071926 2.785213 35.962017 28.425558 73.439517 82.327624 114.685247 164.778125 8.068926 16.137853 26.049935 22.814172 41.368608 15.359632 46.529443-22.650336 100.882059-46.816156 156.954953-46.816157l8.847147 0.081918c17.07991 44.399574 24.57541 97.973969 21.790197 155.029879-0.983016 19.537451 12.697295 36.289689 30.514468 37.313665 17.653336 1.392607 33.012968-13.926066 33.995984-33.504476 3.358639-68.155804-6.020975-132.952969-27.155828-187.428462z" p-id="1013" fill="#ffffff"></path><path d="M409.602458 286.737694c-22.609377 0-40.959017 12.287705-40.959017 27.52446v26.869115C368.643441 356.327064 386.99308 368.655728 409.602458 368.655728s40.959017-12.287705 40.959017-27.524459v-26.869115C450.561475 299.066358 432.211835 286.737694 409.602458 286.737694zM655.356559 286.737694c-22.609377 0-40.959017 12.287705-40.959017 27.52446v26.869115c0 15.195795 18.34964 27.524459 40.959017 27.524459s40.959017-12.287705 40.959017-27.524459v-26.869115C696.315576 299.066358 677.965937 286.737694 655.356559 286.737694zM639.464461 457.372959c-16.055935-12.000992-37.723255-6.881115-48.454517 11.181812-0.163836 0.245754-15.318672 25.189795-38.378599 25.189795-22.4865 0-36.453525-23.100886-37.395583-24.698287-10.321672-18.431558-31.743238-24.001984-48.085886-12.451541-16.465525 11.591402-21.544443 36.166812-11.304688 54.885082 12.615377 23.018968 47.143829 61.970993 96.786157 61.970993 49.355615 0 84.375575-38.665312 97.236706-61.520443 10.321672-18.34964 5.652344-42.597378-10.40359-54.557411zM894.639137 751.704455a31.66132 31.66132 0 0 0-46.28369-7.454541l-220.523347 174.772125a37.231746 37.231746 0 0 0-6.963033 49.642329 32.357623 32.357623 0 0 0 26.623361 14.376615 31.456525 31.456525 0 0 0 19.660328-6.963033l220.523348-174.772125a37.231746 37.231746 0 0 0 6.963033-49.60137zM437.126917 919.022039L216.60357 744.249914a31.66132 31.66132 0 0 0-46.28369 7.454541 37.231746 37.231746 0 0 0 6.963033 49.60137l220.523348 174.813084c5.939057 4.669328 12.820172 6.922074 19.660328 6.922074a32.357623 32.357623 0 0 0 26.623361-14.376615 37.231746 37.231746 0 0 0-6.963033-49.642329z" p-id="1014" fill="#ffffff"></path></svg>